<svg width="1200" height="630" viewBox="0 0 1200 630" fill="none" xmlns="http://www.w3.org/2000/svg">
  <rect width="1200" height="630" rx="48" fill="#FAFAF8"/>
  <circle cx="1093" cy="97" r="167" fill="#E7D6C5"/>
  <circle cx="137" cy="568" r="188" fill="#DCE7E0"/>
  <rect x="74" y="64" width="1052" height="502" rx="40" fill="#FFFDF9"/>
  <rect x="118" y="110" width="506" height="398" rx="32" fill="#F5EFE8"/>
  <path d="M226 418C226 319.694 305.694 240 404 240H454C552.306 240 632 319.694 632 418V508H226V418Z" fill="#D6C5B5"/>
  <path d="M286 218C286 151.726 339.726 98 406 98H452C518.274 98 572 151.726 572 218V334H286V218Z" fill="#B08D72"/>
  <path d="M701 196H981" stroke="#B08D72" stroke-width="18" stroke-linecap="round"/>
  <path d="M701 234H1080" stroke="#D8C8B8" stroke-width="12" stroke-linecap="round"/>
  <text x="699" y="336" fill="#1C1C1C" font-family="Georgia, 'Times New Roman', serif" font-size="68" font-weight="600">
    Rogéria Santos
  </text>
  <text x="699" y="398" fill="#5F564F" font-family="Inter, Arial, sans-serif" font-size="24">
    Psicóloga em Franca e toda a região
  </text>
  <text x="699" y="455" fill="#5F564F" font-family="Inter, Arial, sans-serif" font-size="24">
    CRP 06/53.705-6 · +25 anos de experiência
  </text>
  <rect x="699" y="485" width="390" height="54" rx="27" fill="#B08D72"/>
  <text x="735" y="519" fill="#FFFFFF" font-family="Inter, Arial, sans-serif" font-size="22" font-weight="600">
    Escuta ativa e sensível
  </text>
</svg>
